<?xml version="1.0" standalone="no"?>
<!DOCTYPE svg PUBLIC "-//W3C//DTD SVG 20010904//EN"
 "http://www.w3.org/TR/2001/REC-SVG-20010904/DTD/svg10.dtd">
<svg version="1.0" xmlns="http://www.w3.org/2000/svg"
 width="200.000000pt" height="200.000000pt" viewBox="0 0 200.000000 200.000000"
 preserveAspectRatio="xMidYMid meet">
<metadata>
Created by potrace 1.11, written by Peter Selinger 2001-2013
</metadata>
<g transform="translate(0.000000,200.000000) scale(0.100000,-0.100000)"
fill="#000000" stroke="none">
<path d="M955 1913 c-56 -15 -148 -72 -183 -113 -21 -26 -73 -131 -87 -178
-17 -54 -11 -222 8 -237 7 -6 14 -40 16 -80 1 -38 7 -77 12 -85 6 -10 9 9 7
55 -1 39 1 76 5 83 5 6 4 12 -2 12 -12 0 3 56 35 128 13 30 24 68 24 84 0 37
17 69 33 62 7 -2 23 9 35 26 26 34 38 36 85 14 23 -11 33 -22 31 -33 -2 -9 -1
-38 3 -65 6 -36 15 -53 33 -65 17 -11 22 -12 16 -2 -13 20 12 31 70 31 64 0
86 -20 50 -44 -14 -9 -29 -16 -35 -16 -5 0 -21 -7 -37 -15 -19 -10 -32 -11
-40 -4 -8 7 -14 6 -17 -3 -4 -10 -7 -10 -14 -1 -5 7 -31 15 -59 17 -27 3 -72
8 -100 11 -46 7 -53 5 -68 -16 -23 -34 -21 -50 7 -41 41 15 76 -5 44 -25 -20
-12 -49 -60 -40 -66 4 -2 20 -7 36 -11 15 -3 27 -13 27 -22 0 -12 11 -15 58
-13 31 1 60 7 64 13 4 6 13 11 20 11 7 0 17 18 23 39 9 30 13 36 18 22 4 -10
7 -26 7 -35 0 -10 9 -26 20 -36 11 -10 20 -23 20 -30 0 -6 16 -28 36 -48 20
-19 33 -41 29 -46 -3 -6 -11 -9 -16 -5 -5 3 -23 -6 -40 -20 -17 -14 -34 -26
-39 -26 -4 0 -10 -9 -13 -20 -5 -19 12 -26 46 -21 4 0 7 -3 7 -8 0 -12 -119
-24 -161 -16 -40 6 -70 -8 -52 -26 7 -7 17 -8 29 -1 11 6 37 9 59 8 22 -2 58
-4 80 -5 l40 -2 -40 -19 c-30 -14 -40 -25 -42 -44 -1 -17 3 -26 13 -26 18 0
18 -20 0 -46 -12 -17 -24 -20 -65 -18 -27 1 -55 5 -60 9 -24 14 -9 -9 34 -52
50 -52 50 -70 -1 -48 -20 8 -38 14 -42 12 -18 -5 -55 35 -71 78 -20 53 -22 51
-46 -51 -8 -36 -12 -70 -9 -75 9 -15 10 -138 2 -132 -5 2 -8 -1 -8 -7 0 -7 9
-14 20 -17 11 -3 20 -10 20 -15 0 -5 -5 -6 -12 -2 -7 4 -8 3 -4 -4 4 -7 14
-12 22 -12 8 0 14 -7 14 -15 0 -8 4 -15 10 -15 5 0 7 6 4 13 -3 8 2 19 10 26
12 10 20 2 50 -47 20 -33 36 -62 36 -64 0 -3 18 -24 41 -47 22 -24 38 -49 36
-56 -3 -6 -1 -18 3 -25 9 -14 8 -14 78 108 18 32 63 92 100 133 43 48 81 105
107 157 l39 83 -18 47 c-27 72 -30 97 -11 125 9 15 13 32 9 38 -5 8 -3 9 6 4
10 -6 12 -4 7 8 -3 9 -1 18 6 21 9 3 8 5 -1 5 -7 1 -10 6 -7 11 3 6 -1 13 -9
16 -9 3 -13 10 -10 15 3 5 1 9 -5 9 -5 0 -8 9 -6 20 2 11 1 18 -4 16 -4 -3
-12 4 -19 14 -7 12 -8 21 -2 25 23 14 9 35 -22 35 -42 0 -20 16 34 25 42 8 58
37 58 114 1 40 2 43 12 26 7 -12 12 -69 12 -142 1 -89 4 -124 14 -128 6 -2 12
2 12 9 0 8 6 16 14 19 28 11 48 161 25 184 -8 8 -8 17 1 32 7 14 10 58 7 124
-5 122 -6 126 -37 202 -4 11 -28 47 -52 80 -34 45 -60 69 -109 95 -59 31 -72
34 -159 36 -52 2 -104 0 -115 -3z m-58 -479 c-3 -3 -12 -4 -19 -1 -8 3 -5 6 6
6 11 1 17 -2 13 -5z m184 -51 c-8 -15 -10 -15 -11 -2 0 17 10 32 18 25 2 -3
-1 -13 -7 -23z m-221 13 c0 -2 -9 -6 -20 -9 -11 -3 -18 -1 -14 4 5 9 34 13 34
5z m140 -24 c0 -15 -2 -15 -10 -2 -13 20 -13 33 0 25 6 -3 10 -14 10 -23z
m-137 -12 c6 -22 0 -25 -23 -10 -13 9 -13 11 0 20 8 5 16 10 16 10 1 0 4 -9 7
-20z m377 0 c0 -5 -5 -10 -11 -10 -5 0 -7 5 -4 10 3 6 8 10 11 10 2 0 4 -4 4
-10z m-105 -90 c10 -11 16 -20 13 -20 -3 0 -13 9 -23 20 -10 11 -16 20 -13 20
3 0 13 -9 23 -20z m15 -184 c-6 -6 -18 -5 -32 2 -22 10 -21 10 9 9 19 -1 28
-6 23 -11z m-5 -46 c-3 -5 -12 -10 -18 -10 -7 0 -6 4 3 10 19 12 23 12 15 0z"/>
<path d="M685 1288 c2 -29 8 -64 14 -78 l12 -25 -6 25 c-2 14 -5 49 -5 78 0
28 -4 52 -9 52 -5 0 -8 -24 -6 -52z"/>
<path d="M1338 1307 c-3 -19 -2 -25 4 -19 6 6 8 18 6 28 -3 14 -5 12 -10 -9z"/>
<path d="M971 1283 c-10 -26 -10 -27 4 -9 8 11 15 23 15 28 0 15 -7 8 -19 -19z"/>
<path d="M975 1171 c-3 -6 4 -9 15 -8 11 1 20 5 20 9 0 11 -28 10 -35 -1z"/>
<path d="M650 631 c-5 -11 -10 -29 -10 -41 0 -24 25 -54 38 -46 5 3 27 6 50 7
37 3 40 5 28 18 -8 9 -17 31 -21 49 -6 28 -10 32 -40 32 -24 0 -38 -6 -45 -19z"/>
<path d="M1340 556 c0 -31 -5 -37 -47 -58 -70 -33 -202 -115 -240 -148 -29
-26 -30 -30 -16 -42 14 -11 16 -11 10 4 -3 10 -2 20 3 23 5 3 8 -24 8 -60 0
-37 3 -69 6 -72 3 -4 6 21 6 55 0 54 3 63 26 81 15 12 35 21 45 21 11 0 19 3
19 8 0 9 91 47 106 44 6 -1 22 8 35 21 25 25 69 41 69 26 0 -5 13 -9 28 -9 31
0 92 54 92 82 0 18 -85 58 -124 58 -23 0 -26 -4 -26 -34z"/>
<path d="M858 497 c12 -13 29 -24 38 -24 10 0 6 8 -13 23 -37 30 -53 31 -25 1z"/>
<path d="M880 439 c0 -9 7 -22 15 -29 19 -16 19 0 0 26 -12 16 -14 16 -15 3z"/>
<path d="M1877 290 c-10 -108 -38 -221 -53 -206 -7 7 -6 26 3 60 7 28 13 64
12 81 0 28 -1 28 -9 8 -5 -13 -13 -23 -18 -23 -5 0 -15 -26 -22 -57 -7 -32
-18 -69 -26 -83 -13 -24 -13 -24 -15 20 l-2 45 -6 -50 c-5 -41 -9 -50 -26 -50
-11 0 -21 -8 -23 -17 -4 -21 24 -25 31 -5 4 9 6 9 6 0 1 -9 20 -13 59 -13 l59
0 18 53 c11 32 19 95 22 167 6 142 0 186 -10 70z m-76 -233 c-10 -9 -11 -8 -5
6 3 10 9 15 12 12 3 -3 0 -11 -7 -18z"/>
<path d="M987 295 c-8 -20 -4 -29 11 -24 5 2 6 13 2 23 -6 19 -7 19 -13 1z"/>
<path d="M1745 210 c2 -25 4 -46 4 -47 1 -2 6 -3 12 -3 7 0 8 7 4 18 -4 9 -11
31 -16 47 -7 25 -7 22 -4 -15z"/>
<path d="M928 204 c-12 -28 -12 -45 -4 -77 l11 -41 7 74 c4 40 6 75 4 77 -2 2
-10 -13 -18 -33z"/>
<path d="M186 180 c4 -19 22 -57 41 -85 l34 -50 -40 42 c-47 49 -54 35 -21
-41 21 -46 21 -46 70 -46 l49 0 -23 23 c-13 13 -27 41 -31 63 -4 24 -21 56
-46 84 l-39 45 6 -35z"/>
<path d="M1063 80 c0 -47 2 -66 4 -42 2 23 2 61 0 85 -2 23 -4 4 -4 -43z"/>
<path d="M1590 47 c0 -41 12 -51 53 -45 24 3 24 3 -14 43 l-39 40 0 -38z"/>
<path d="M1930 60 c0 -8 -3 -25 -6 -37 -5 -19 -2 -23 15 -23 25 0 28 27 6 56
-11 14 -14 15 -15 4z"/>
<path d="M1872 26 c-7 -16 -8 -26 -1 -26 12 0 22 25 17 41 -2 6 -9 0 -16 -15z"/>
<path d="M75 10 c-3 -5 -1 -10 4 -10 6 0 11 5 11 10 0 6 -2 10 -4 10 -3 0 -8
-4 -11 -10z"/>
</g>
</svg>
