<?xml version="1.0" encoding="UTF-8" standalone="no"?>
<svg width="76px" height="60px" viewBox="0 0 76 60" version="1.1" xmlns="http://www.w3.org/2000/svg" xmlns:xlink="http://www.w3.org/1999/xlink" xmlns:sketch="http://www.bohemiancoding.com/sketch/ns">
    <!-- Generator: Sketch 3.5.1 (25234) - http://www.bohemiancoding.com/sketch -->
    <title>QuarterG</title>
    <desc>Created with Sketch.</desc>
    <defs>
        <rect id="path-1" x="0" y="0" width="76" height="79"></rect>
    </defs>
    <g id="Final" stroke="none" stroke-width="1" fill="none" fill-rule="evenodd" sketch:type="MSPage">
        <g id="Course" sketch:type="MSArtboardGroup" transform="translate(0.000000, -20.000000)">
            <g id="QuarterG" sketch:type="MSLayerGroup" transform="translate(0.000000, 1.000000)">
                <g id="Mask" sketch:type="MSShapeGroup">
                    <rect id="path-1" x="0" y="0" width="76" height="79"></rect>
                </g>
                <g id="Shape-Clipped">
                    <mask id="mask-2" sketch:name="path-1" fill="white">
                        <use xlink:href="#path-1"></use>
                    </mask>
                    <g id="path-1"></g>
                    <path d="M19.6671837,19.238455 L19.6671837,38.8308217 L44.301999,38.8578507 C42.3402541,44.5438355 38.7277505,49.5883338 33.7727626,53.0687584 C30.1322341,55.8617473 25.3652843,57.529432 19.4710093,57.8258492 C18.7432652,57.85468 18.0959798,57.85468 17.4459822,57.8474723 C16.9388215,57.8402646 16.4343728,57.8078299 15.9398684,57.7753952 C15.0747118,57.7267431 14.2267317,57.6627747 13.4076806,57.5618667 C13.2630358,57.5465503 13.1111588,57.5213233 12.9701302,57.4969972 C11.9295917,57.3546449 10.9378709,57.1726501 9.96784677,56.949211 C8.80255225,56.673516 7.87230543,56.397821 6.96827551,56.0833844 C6.7956058,56.0248218 6.62384012,55.9518437 6.4511704,55.8878752 C5.68816915,55.6094774 4.9342082,55.3058524 4.22273666,54.9715947 C3.83581185,54.7859961 3.46696765,54.5760714 3.0908912,54.3751564 C2.5981949,54.1183816 2.11996307,53.8679136 1.65890782,53.5832089 C0.995349854,53.180478 0.366145031,52.7354017 -0.256731582,52.2705042 C-0.424881146,52.1407653 -0.613823399,52.0281448 -0.788301173,51.8948021 C-2.40018651,50.6208388 -3.89816409,49.1513662 -5.27319359,47.4674642 C-10.7082214,40.734559 -13.5116182,31.7816782 -13.8840786,19.9556226 C-13.8895027,19.7150651 -13.8931189,19.4772106 -13.9057752,19.2375541 C-13.9093914,18.9933928 -13.9265679,18.7456276 -13.9265679,18.4870509 C-13.9374163,17.8446635 -13.9039672,17.2374136 -13.8840786,16.6103426 C-13.8723262,15.6571226 -13.8578617,14.7011996 -13.80814,13.7822161 C-13.8018118,13.6434676 -13.7819232,13.5110259 -13.7746909,13.3686735 C-13.3190598,6.28709525 -11.8572435,0.189369796 -9.37296927,-4.90107772 C-9.0095492,-5.65428376 -8.59640756,-6.36694641 -8.18326592,-7.07330232 C-8.04223723,-7.31476071 -7.92561737,-7.56973357 -7.7755484,-7.80218232 C-7.3886236,-8.43105527 -6.96101745,-9.02028589 -6.54425966,-9.61221929 C-6.31282799,-9.95008087 -6.08410843,-10.2960511 -5.84182841,-10.6167944 C-4.31311382,-12.5664808 -2.65873907,-14.2260568 -0.901304912,-15.6099377 C0.0786635175,-16.3505303 0.888674325,-16.8947126 1.72761409,-17.4019555 C2.0331762,-17.5794454 2.35139473,-17.7398171 2.67051729,-17.9091983 C3.25813674,-18.2344463 3.85389245,-18.5434771 4.474961,-18.8155682 C4.95861701,-19.0345025 5.46758585,-19.222804 5.97926679,-19.4093036 C6.4511704,-19.5858926 6.91132164,-19.7570758 7.39768972,-19.9003291 C8.0042938,-20.0904325 8.64163492,-20.255309 9.28440018,-20.4021661 C9.6875975,-20.4976683 10.1061633,-20.5958734 10.517497,-20.6715544 C11.2090798,-20.8003923 11.9223594,-20.8967954 12.6410632,-20.9877928 C13.0505888,-21.033742 13.4628264,-21.0805921 13.8949528,-21.1139278 C14.6118485,-21.1751934 15.3395926,-21.2058262 16.0863212,-21.2175387 C16.6757488,-21.2310532 17.2516158,-21.2373599 17.8627401,-21.2274493 C18.2352004,-21.2175387 18.6076607,-21.211232 18.9873533,-21.1896088 C19.49361,-21.1679857 19.9899225,-21.1328481 20.4690583,-21.0959085 C20.7954131,-21.0661767 21.1127276,-21.0400487 21.4291381,-21.0130198 C21.8251032,-20.9679716 22.211124,-20.9157157 22.6034729,-20.8697665 C23.1612594,-20.7958874 23.7000612,-20.7138997 24.236151,-20.6156946 C25.9348232,-20.2913475 27.2944842,-19.9282589 28.5854389,-19.4858856 C28.9280662,-19.3597506 29.2743097,-19.2255069 29.6250733,-19.0876594 C29.856505,-18.9894543 30.0915528,-18.9038628 30.3193682,-18.8047567 C32.3534356,-17.8956838 34.3323571,-16.6559572 36.3655204,-14.9990841 C36.626785,-14.775645 36.8699691,-14.5513048 37.1086329,-14.3080445 C37.4223314,-13.994509 37.7477822,-13.6512417 38.0976417,-13.2629261 C38.5261518,-12.7601881 38.7982649,-12.4322372 39.0721859,-12.0781583 C39.1589728,-11.9592309 39.2430476,-11.8421056 39.3334506,-11.7213764 C39.5648822,-11.4069399 39.79993,-11.0852957 40.0340738,-10.7231082 C41.4570168,-8.50133049 42.5382366,-5.9525029 43.2406678,-3.05860601 L49.2072653,-3.05860601 L67.2526065,-3.05860601 C65.5412779,-15.0306178 60.1577797,-24.4411884 51.0930718,-31.2786055 C42.4749545,-37.7862696 31.4385573,-41.1594795 18.0562024,-41.473015 C17.3266503,-41.49644 16.6748447,-41.5360825 15.9706054,-41.5360825 C15.5429993,-41.5324786 15.4553084,-41.5360825 15.3504409,-41.5360825 C8.46082887,-41.5360825 2.14708397,-40.5098843 -3.61429869,-38.4619928 C-3.98133484,-38.3340559 -4.1585247,-38.2646816 -4.33481054,-38.1917035 C-11.7297753,-35.488811 -18.1474836,-31.1713908 -23.5716631,-25.2016022 C-33.4563263,-14.3071436 -38.4086022,0.220002577 -38.4086022,18.3906478 C-38.4086022,18.8852772 -38.3950417,19.0555594 -38.3950417,19.2375541 C-38.2910783,37.1532265 -33.3604991,51.5127933 -23.5716631,62.2901266 C-18.1474836,68.2581132 -11.7297753,72.5782364 -4.33481054,75.278426 C-4.1585247,75.3478002 -3.98133484,75.4162735 -3.78787243,75.4856477 C2.14708397,77.5984086 8.46082887,78.6309136 15.3504409,78.6309136 C15.7572544,78.6173992 15.8684501,78.6309136 15.9706054,78.6309136 C30.3202723,78.6309136 38.4673899,74.7405503 47.5320979,67.8941236 C50.6410568,65.5516169 53.6921578,62.6685316 56.4042475,59.4313673 L56.3816468,75.4081648 L76,75.4081648 L76,19.2366531 L74.1277541,19.2366531 L19.6671837,19.238455 L19.6671837,19.238455 Z" id="Shape" fill="#EF403D" sketch:type="MSShapeGroup" mask="url(#mask-2)"></path>
                </g>
            </g>
        </g>
    </g>
</svg>